<svg xmlns="http://www.w3.org/2000/svg" width="128" height="128" viewBox="0 0 128 128" fill="none">
  <defs>
    <linearGradient id="brand-bg" x1="16" y1="12" x2="112" y2="116" gradientUnits="userSpaceOnUse">
      <stop stop-color="#6D5DFB"/>
      <stop offset="0.52" stop-color="#3B82F6"/>
      <stop offset="1" stop-color="#14B8A6"/>
    </linearGradient>
    <linearGradient id="brand-spark" x1="84" y1="26" x2="104" y2="46" gradientUnits="userSpaceOnUse">
      <stop stop-color="#FDE68A"/>
      <stop offset="1" stop-color="#F59E0B"/>
    </linearGradient>
    <filter id="brand-shadow" x="10" y="10" width="108" height="108" filterUnits="userSpaceOnUse" color-interpolation-filters="sRGB">
      <feFlood flood-opacity="0" result="BackgroundImageFix"/>
      <feColorMatrix in="SourceAlpha" values="0 0 0 0 0 0 0 0 0 0 0 0 0 0 0 0 0 0 127 0" result="hardAlpha"/>
      <feOffset dy="10"/>
      <feGaussianBlur stdDeviation="9"/>
      <feColorMatrix values="0 0 0 0 0.05098 0 0 0 0 0.1098 0 0 0 0 0.2627 0 0 0 0.3 0"/>
      <feBlend in2="BackgroundImageFix" result="effect1_dropShadow_1_1"/>
      <feBlend in="SourceGraphic" in2="effect1_dropShadow_1_1" result="shape"/>
    </filter>
  </defs>
  <rect x="8" y="8" width="112" height="112" rx="28" fill="url(#brand-bg)"/>
  <g filter="url(#brand-shadow)">
    <rect x="24" y="24" width="80" height="80" rx="24" fill="white" fill-opacity="0.12"/>
    <rect x="25" y="25" width="78" height="78" rx="23" stroke="white" stroke-opacity="0.18" stroke-width="2"/>
  </g>
  <path d="M46 78V48" stroke="white" stroke-width="8" stroke-linecap="round"/>
  <path d="M46 58H74C81.1797 58 87 52.1797 87 45V40" stroke="white" stroke-width="8" stroke-linecap="round" stroke-linejoin="round"/>
  <path d="M46 70H70C77.1797 70 83 75.8203 83 83V88" stroke="white" stroke-width="8" stroke-linecap="round" stroke-linejoin="round"/>
  <circle cx="46" cy="84" r="9" fill="white"/>
  <circle cx="87" cy="35" r="9" fill="#E8F0FF"/>
  <circle cx="83" cy="93" r="9" fill="#D5FFF8"/>
  <path d="M94 22L96.3 29.7L104 32L96.3 34.3L94 42L91.7 34.3L84 32L91.7 29.7L94 22Z" fill="url(#brand-spark)"/>
</svg>
